<?xml version="1.0" standalone="no"?>
<!DOCTYPE svg PUBLIC "-//W3C//DTD SVG 20010904//EN"
 "http://www.w3.org/TR/2001/REC-SVG-20010904/DTD/svg10.dtd">
<svg version="1.0" xmlns="http://www.w3.org/2000/svg"
 width="137.000000pt" height="137.000000pt" viewBox="0 0 137.000000 137.000000"
 preserveAspectRatio="xMidYMid meet">

<g transform="translate(0.000000,137.000000) scale(0.100000,-0.100000)"
fill="#000000" stroke="none">
<path d="M349 1147 c-51 -27 -109 -98 -109 -133 0 -31 23 -31 44 1 20 30 61
33 127 9 49 -17 107 -21 157 -10 l33 8 -38 -68 c-33 -61 -37 -77 -41 -156 -4
-87 -5 -88 -31 -88 -45 0 -97 -19 -120 -44 -29 -31 -20 -46 29 -46 21 0 50 -4
64 -10 25 -9 66 -63 66 -86 0 -6 -23 -14 -52 -17 -81 -10 -104 -47 -37 -61 46
-9 99 -66 99 -108 0 -82 -93 -199 -207 -264 -29 -16 -53 -32 -53 -36 0 -19 50
-4 160 47 144 66 198 79 310 72 94 -5 167 -29 245 -78 l48 -30 79 78 c73 72
93 103 67 103 -6 0 -19 -5 -30 -10 -15 -9 -36 -2 -106 32 -82 41 -91 43 -172
42 -54 0 -102 -7 -130 -18 -24 -9 -46 -14 -49 -12 -2 3 27 39 65 81 126 137
155 229 134 438 -21 226 -14 280 45 326 14 11 41 23 60 27 54 10 40 24 -23 24
-68 -1 -120 -18 -167 -53 -70 -54 -93 -163 -70 -335 8 -59 14 -127 14 -152 0
-70 -27 -179 -60 -245 -32 -65 -104 -154 -115 -143 -4 3 9 34 29 67 19 34 45
93 57 133 20 66 21 82 13 222 -18 318 -8 381 73 461 53 52 42 57 -42 19 -64
-30 -108 -28 -176 6 -54 28 -72 24 -24 -5 37 -23 38 -25 15 -25 -15 0 -32 6
-39 13 -8 7 -11 7 -8 1 10 -17 -31 -25 -59 -12 -18 8 -28 8 -35 1 -13 -13 -42
-6 -33 8 3 5 -1 9 -8 10 -21 1 34 20 82 29 l45 8 -41 1 c-25 1 -58 -8 -85 -22z
m230 -71 c0 -5 5 -12 12 -17 32 -19 -46 -41 -81 -22 -17 8 -20 13 -9 13 9 0
20 11 23 24 5 20 10 23 31 18 13 -4 24 -11 24 -16z m-69 -10 c0 -2 -9 -6 -20
-9 -11 -3 -18 -1 -14 4 5 9 34 13 34 5z m70 -203 c0 -75 1 -79 27 -90 15 -7
33 -13 41 -13 10 0 13 -8 10 -24 -3 -17 0 -27 11 -31 14 -6 14 -8 -3 -21 -11
-8 -14 -14 -8 -14 8 0 10 -9 6 -27 -9 -38 -13 -41 -28 -20 -7 9 -21 17 -29 17
-12 0 -19 12 -23 39 -4 26 -12 41 -25 44 -10 3 -21 17 -25 31 -9 35 4 133 20
149 7 7 11 18 8 25 -2 6 1 12 7 12 7 0 11 -29 11 -77z m237 -123 c2 -29 -1
-40 -12 -40 -9 0 -12 -6 -9 -15 4 -9 0 -15 -10 -15 -29 0 -17 95 13 103 9 3
16 5 16 6 0 0 1 -17 2 -39z m-200 -306 c-3 -3 -12 -4 -19 -1 -8 3 -5 6 6 6 11
1 17 -2 13 -5z m0 -30 c-3 -3 -12 -4 -19 -1 -8 3 -5 6 6 6 11 1 17 -2 13 -5z
m454 -201 c5 -46 3 -66 -7 -74 -9 -7 -12 -5 -9 8 1 10 -2 24 -7 30 -12 15 -4
43 12 43 5 0 10 -3 11 -7z m-31 -98 c0 -17 -2 -18 -25 -9 -13 5 -14 8 -3 15
19 13 28 11 28 -6z m-635 -15 c-3 -5 -11 -10 -16 -10 -6 0 -7 5 -4 10 3 6 11
10 16 10 6 0 7 -4 4 -10z"/>
</g>
</svg>
