<?xml version="1.0" standalone="no"?>
<!DOCTYPE svg PUBLIC "-//W3C//DTD SVG 20010904//EN"
 "http://www.w3.org/TR/2001/REC-SVG-20010904/DTD/svg10.dtd">
<svg version="1.0" xmlns="http://www.w3.org/2000/svg"
 width="3400.000000pt" height="3000.000000pt" viewBox="0 0 3400.000000 3000.000000"
 preserveAspectRatio="xMidYMid meet">

<g transform="translate(0.000000,3000.000000) scale(0.100000,-0.100000)"
fill="#000000" stroke="none">
<path d="M15230 28160 l-53 -129 -46 -10 c-25 -5 -86 -17 -136 -27 -49 -9 -93
-20 -97 -23 -4 -3 43 -49 103 -101 86 -74 109 -99 105 -115 -8 -36 -28 -243
-25 -254 2 -6 56 20 121 59 64 39 121 70 127 70 5 0 65 -25 131 -56 67 -30
124 -53 127 -51 2 3 -10 66 -27 141 l-31 137 97 105 c53 58 95 106 93 109 -3
2 -63 9 -134 15 -72 6 -135 13 -142 15 -6 2 -42 58 -79 124 -37 67 -70 121
-74 121 -4 0 -30 -58 -60 -130z"/>
<path d="M20235 27700 c-107 -124 -153 -170 -169 -169 -11 0 -111 10 -221 23
-110 13 -202 22 -204 20 -3 -3 116 -207 215 -369 10 -17 -1 -47 -81 -225 -51
-113 -92 -206 -91 -207 1 -1 97 20 214 47 117 28 216 50 221 50 5 0 83 -67
173 -149 146 -134 164 -147 170 -128 3 12 14 112 22 222 13 162 20 202 33 212
9 7 97 59 195 114 99 56 176 105 171 110 -4 4 -96 44 -203 89 -107 45 -198 86
-201 91 -3 5 -25 106 -49 224 -24 118 -44 215 -46 215 -1 0 -69 -76 -149 -170z"/>
<path d="M16531 26595 c-426 -742 -458 -791 -684 -1037 -74 -81 -105 -108
-123 -108 -65 0 -134 -57 -134 -111 0 -23 -15 -39 -98 -101 -287 -217 -634
-376 -966 -443 -147 -30 -366 -55 -482 -55 -225 0 -507 43 -728 111 l-109 33
41 14 c46 15 98 68 108 109 11 41 -16 104 -55 130 -62 42 -155 24 -186 -37
-17 -33 -20 -132 -5 -161 6 -10 8 -19 5 -19 -3 0 -54 22 -113 48 -194 87 -431
231 -582 353 -36 29 -283 244 -549 477 -266 233 -484 422 -486 420 -1 -2 31
-286 72 -633 81 -690 95 -900 74 -1107 -38 -366 -157 -708 -354 -1016 -38 -61
-41 -62 -74 -56 -67 13 -146 -25 -189 -91 -19 -29 -21 -91 -3 -139 l13 -36
-74 -68 c-40 -37 -103 -90 -139 -118 l-66 -52 -35 19 c-105 55 -226 -12 -238
-132 l-5 -52 -71 -32 c-390 -180 -885 -223 -1356 -119 -168 38 -420 123 -561
192 -68 32 -353 188 -633 345 -281 158 -512 285 -514 282 -2 -2 102 -280 231
-617 242 -628 277 -731 320 -929 45 -203 51 -255 33 -281 -25 -35 -20 -107 9
-150 23 -34 25 -46 25 -155 0 -147 -15 -312 -41 -468 -19 -110 -24 -122 -51
-144 -57 -45 -82 -137 -58 -208 9 -24 5 -42 -24 -115 -319 -790 -987 -1298
-1881 -1429 -138 -20 -496 -37 -830 -39 -82 -1 -158 -4 -167 -8 -14 -6 13 -52
152 -263 l168 -257 -26 -26 c-38 -38 -36 -90 6 -127 34 -31 55 -35 97 -19 23
9 28 6 45 -23 58 -92 220 -431 220 -458 0 -5 -12 -9 -26 -9 -53 0 -283 -43
-436 -81 -660 -166 -1252 -502 -1912 -1089 -168 -148 -666 -644 -860 -855
-445 -483 -733 -893 -910 -1295 -319 -726 -471 -1541 -453 -2430 7 -317 16
-445 53 -759 140 -1192 520 -2306 1107 -3246 376 -603 779 -1041 1242 -1350
690 -462 1414 -527 2093 -190 384 191 674 443 1203 1050 l96 110 53 -4 c37 -2
62 2 86 15 33 18 35 18 70 -1 20 -11 84 -58 143 -105 58 -47 214 -164 346
-259 132 -96 348 -256 480 -356 348 -263 376 -280 433 -256 16 7 88 77 161
158 96 104 136 142 141 132 7 -12 60 -236 60 -252 0 -2 -17 -8 -37 -12 -82
-15 -119 -68 -111 -160 4 -44 11 -62 33 -85 33 -34 81 -47 125 -32 28 10 30 9
37 -16 5 -15 8 -162 8 -327 -1 -276 -3 -321 -33 -564 -18 -145 -31 -266 -28
-268 2 -3 111 45 243 105 298 138 434 193 524 215 l27 7 -14 -40 c-18 -51 -9
-94 27 -129 97 -98 257 18 194 140 -9 16 -30 38 -46 48 l-31 19 70 16 c426 97
896 94 1297 -9 136 -35 312 -94 414 -140 l60 -27 -34 -32 c-45 -42 -52 -75
-30 -134 24 -63 80 -118 129 -127 78 -15 166 35 187 106 7 21 14 39 16 39 18
0 228 -155 333 -246 336 -290 610 -680 798 -1136 l41 -97 -37 -18 c-76 -37
-90 -133 -29 -194 27 -27 35 -30 86 -28 l56 3 52 -215 c28 -117 53 -220 55
-227 2 -7 74 50 166 132 225 200 396 333 557 432 l30 18 -22 -25 c-54 -60 -51
-129 8 -185 26 -25 38 -29 85 -29 51 0 58 3 90 37 29 32 34 45 34 87 0 81 -64
138 -143 128 l-40 -5 30 18 c64 39 252 138 341 180 l92 43 23 -21 c35 -33 96
-55 134 -47 62 11 143 102 143 158 0 23 8 27 113 56 250 69 421 97 672 110
801 43 1568 -252 2202 -845 65 -60 126 -128 142 -155 15 -27 45 -62 67 -77 21
-16 88 -86 148 -155 61 -70 113 -127 117 -127 3 0 9 100 13 222 8 268 19 391
51 563 50 270 121 487 239 730 l73 150 44 1 c56 2 101 24 131 66 20 29 23 44
23 129 l0 97 86 98 c48 55 96 108 108 118 21 19 22 19 54 -12 36 -35 94 -62
132 -62 72 0 148 59 170 133 16 54 11 93 -17 150 -11 22 -18 40 -16 41 19 15
138 81 194 109 l72 36 38 -19 c96 -50 210 -6 265 101 18 35 23 38 106 58 49
11 129 27 179 36 103 18 366 36 376 27 3 -4 -1 -34 -9 -67 -20 -76 -7 -130 42
-180 87 -86 236 -61 286 48 24 53 24 91 -1 145 l-19 42 22 -4 c12 -3 56 -10
97 -16 154 -24 480 -113 551 -151 9 -4 19 -26 22 -48 15 -117 164 -188 255
-122 l34 24 41 -23 c78 -42 292 -187 378 -256 47 -38 140 -118 208 -179 67
-60 127 -112 133 -114 7 -2 9 44 7 145 -2 82 -3 195 -1 251 l2 101 39 -15 c75
-29 160 11 180 85 27 94 -58 186 -155 168 -20 -4 -34 -3 -34 3 0 22 43 232 66
326 14 55 45 161 70 235 l44 136 44 21 c87 42 123 125 92 207 l-17 44 37 74
c36 71 142 253 172 293 14 20 14 20 9 -2 -9 -42 14 -101 54 -137 67 -62 154
-60 222 3 35 33 41 44 45 93 5 64 -18 120 -68 162 -38 32 -69 40 -120 33 l-40
-5 63 81 c79 103 304 336 421 436 270 231 615 436 944 561 l113 43 30 -37 c40
-47 77 -66 133 -66 37 0 51 6 79 33 33 31 57 87 57 134 0 25 12 29 180 62 145
28 230 39 413 55 192 16 202 22 163 87 -14 24 -69 95 -122 158 -53 63 -103
126 -112 140 -9 14 -35 49 -58 77 -97 120 -241 387 -319 589 -43 111 -79 225
-73 230 2 2 56 5 121 6 l117 4 21 -43 c42 -84 136 -115 214 -70 44 26 85 88
85 130 0 20 6 29 23 32 354 75 727 198 1119 369 127 56 145 61 131 41 -37 -57
-7 -137 60 -163 32 -12 40 -11 74 5 52 26 79 80 63 128 -14 42 -40 66 -82 76
l-33 7 36 16 c20 9 137 64 259 122 123 58 234 105 247 105 31 0 79 25 86 44 4
9 64 44 135 80 346 173 610 352 797 541 373 375 520 913 371 1353 -79 231
-296 518 -494 652 -28 19 -52 38 -52 41 0 18 170 82 430 163 111 35 152 52
172 73 47 51 107 155 198 343 139 287 160 326 437 800 1430 2449 2174 3572
3386 5114 164 208 295 381 292 384 -3 3 -211 0 -463 -7 -251 -7 -790 -17
-1197 -21 -1163 -13 -2000 -42 -2350 -81 -411 -45 -619 -102 -1245 -341 -453
-172 -658 -239 -913 -295 l-38 -8 -55 -140 c-30 -77 -118 -304 -195 -505 -78
-201 -145 -373 -151 -383 -23 -44 -17 0 17 115 20 67 82 274 136 458 163 546
320 1074 325 1093 5 16 -7 17 -153 17 -167 0 -655 -13 -1138 -30 -479 -17
-625 -20 -625 -12 0 4 -7 63 -15 132 -17 145 -20 452 -5 601 29 291 126 676
227 900 l28 61 48 2 c62 2 97 35 104 98 4 37 1 49 -21 75 l-27 32 196 391
c108 216 194 394 191 397 -2 3 -190 -54 -418 -127 -341 -108 -417 -129 -436
-120 -57 25 -138 3 -160 -44 -14 -31 -29 -37 -165 -72 -241 -61 -599 -88 -847
-65 -181 17 -395 63 -555 118 -120 42 -140 52 -137 68 18 133 -26 211 -131
230 -50 10 -119 -17 -151 -57 l-23 -30 -77 51 c-241 163 -473 410 -637 679
l-60 97 42 7 c57 10 87 32 110 81 24 53 24 101 -1 154 -24 53 -70 83 -128 83
-48 0 -75 -11 -113 -47 l-26 -24 -27 73 c-39 103 -92 314 -113 448 -13 86 -17
171 -17 340 0 220 3 242 87 940 48 393 90 733 93 755 l6 40 -70 -68 c-60 -58
-75 -67 -96 -61 -26 6 -30 1 -27 -37 1 -8 -95 -106 -213 -217 l-215 -202 -30
30 c-36 36 -70 38 -107 7 -35 -31 -35 -79 0 -116 l25 -26 -197 -184 -196 -185
-8 31 c-9 36 -66 90 -105 99 -67 17 -118 -37 -118 -126 0 -48 4 -63 24 -84 14
-14 30 -26 37 -26 35 0 15 -23 -74 -87 -95 -69 -262 -173 -277 -173 -4 0 -20
11 -37 25 -40 34 -94 47 -140 35 -66 -19 -122 -110 -104 -168 6 -17 -4 -23
-66 -47 -104 -38 -314 -91 -448 -112 -156 -24 -453 -24 -605 1 -200 31 -384
86 -548 163 l-77 36 24 26 c32 34 46 72 46 127 0 100 -76 171 -172 162 -64 -7
-97 -31 -129 -97 l-26 -52 -34 28 c-248 203 -441 448 -588 747 -80 163 -89
186 -68 186 21 0 64 54 72 89 15 71 -53 144 -130 139 l-40 -3 -167 685 c-92
377 -168 692 -170 700 -2 8 -158 -255 -347 -585z m49 -1992 c232 -384 574
-744 927 -976 397 -261 827 -414 1328 -472 166 -19 489 -22 655 -5 392 39 838
168 1182 341 l78 39 6 -27 c138 -622 439 -1177 879 -1618 253 -254 516 -446
824 -600 484 -243 981 -353 1540 -344 111 2 201 2 201 -1 0 -3 -11 -79 -24
-170 -37 -244 -50 -517 -37 -739 9 -158 33 -371 46 -407 2 -8 -27 -14 -93 -18
-406 -27 -895 -58 -1035 -66 -197 -12 -703 -51 -1072 -84 -143 -12 -279 -21
-301 -18 -23 2 -51 -1 -61 -7 -11 -5 -141 -17 -289 -26 -631 -37 -779 -47
-949 -66 -502 -56 -1009 -185 -1116 -286 l-26 -24 13 98 c43 315 77 569 88
646 12 83 12 87 -6 87 -38 0 -884 -170 -1443 -290 -126 -27 -428 -88 -670
-135 -772 -148 -956 -206 -1508 -472 -109 -53 -200 -93 -203 -90 -12 12 -8
521 4 550 11 26 10 27 -16 27 -92 0 -2713 -518 -3112 -615 -30 -7 -67 -16 -82
-19 l-27 -6 -3 108 -3 108 -225 -58 c-600 -155 -1258 -330 -1700 -452 -68 -19
-128 -32 -132 -30 -5 3 -8 13 -8 22 0 31 -39 81 -79 102 -69 35 -116 26 -178
-33 -27 -25 -33 -39 -33 -71 0 -23 9 -55 19 -72 l19 -31 -367 -108 c-496 -147
-617 -194 -852 -338 l-106 -64 -11 30 -11 29 -73 -39 c-40 -22 -84 -44 -98
-50 l-25 -10 33 -33 c18 -18 30 -36 25 -40 -4 -4 -63 -49 -130 -100 l-122 -92
-31 26 c-83 69 -195 -17 -146 -112 l15 -30 -134 -101 c-114 -86 -138 -100
-155 -91 -29 16 -76 12 -101 -9 -21 -17 -22 -22 -11 -45 7 -15 12 -33 12 -39
0 -7 -29 -43 -65 -80 l-66 -67 -97 81 c-291 242 -667 428 -1034 514 l-117 27
-46 139 c-26 76 -66 187 -90 247 -37 92 -41 107 -27 110 89 16 327 80 434 116
648 217 1207 633 1567 1166 304 449 480 926 547 1480 19 151 24 504 11 696
l-9 122 79 -19 c609 -146 1272 -105 1821 112 922 365 1610 1173 1847 2169 15
63 29 116 30 118 1 1 55 -23 121 -54 388 -184 782 -294 1189 -335 159 -16 502
-16 645 -1 348 38 679 120 985 246 216 90 542 274 737 418 93 69 302 244 342
287 17 17 32 31 35 31 3 0 35 -48 71 -107z m15550 -5247 c0 -3 -49 -69 -108
-148 -471 -622 -1054 -1465 -1487 -2153 -384 -608 -1285 -2137 -1706 -2892
-19 -33 -101 -181 -183 -328 l-149 -267 -61 6 c-34 3 -393 9 -798 12 -406 3
-738 8 -738 10 0 5 398 989 486 1204 31 74 171 419 311 765 722 1788 930 2284
1403 3360 90 204 164 371 165 372 3 5 494 24 1020 38 314 9 613 17 665 18 170
5 1180 7 1180 3z m-13383 -68 c-3 -13 -17 -122 -32 -243 -15 -121 -51 -418
-80 -660 -30 -242 -62 -503 -70 -580 -9 -77 -29 -250 -46 -385 -241 -1994
-532 -4653 -684 -6260 -24 -248 -40 -377 -48 -382 -7 -4 -23 -8 -36 -8 -146
-1 -1220 -256 -1746 -415 -66 -20 -129 -39 -139 -42 -21 -7 -22 -20 9 232 8
66 30 257 50 425 19 168 39 346 45 395 65 566 123 1313 235 3035 165 2546 203
3173 262 4287 l6 121 41 11 c23 5 140 33 261 61 121 28 265 62 320 75 312 74
1595 351 1639 354 14 1 17 -4 13 -21z m7577 -30 c-4 -13 -110 -380 -234 -816
l-227 -793 -260 -282 c-425 -461 -787 -865 -1113 -1242 -90 -104 -173 -199
-183 -210 -10 -11 -61 -69 -112 -130 -51 -60 -152 -180 -224 -265 -73 -85
-225 -267 -339 -405 -113 -137 -209 -252 -212 -255 -15 -15 -130 -156 -441
-545 -339 -424 -485 -612 -839 -1075 l-179 -235 35 -3 c20 -2 131 4 247 12
117 9 248 19 292 21 44 3 166 12 270 20 242 19 681 50 995 70 135 9 342 23
460 30 118 8 245 15 283 15 l67 0 0 -34 c0 -19 -7 -113 -15 -208 -8 -95 -17
-209 -20 -253 -3 -44 -10 -127 -16 -185 -5 -58 -23 -258 -39 -445 -39 -443
-60 -668 -63 -671 -1 0 -209 -6 -462 -13 -1156 -28 -2140 -121 -3515 -330
-334 -52 -405 -64 -705 -120 -207 -39 -540 -108 -584 -121 -19 -5 -36 -9 -37
-7 -1 1 -7 92 -13 202 -6 110 -17 315 -25 455 -9 140 -18 309 -21 375 -7 141
-20 352 -35 558 l-11 147 88 128 c48 70 128 186 178 257 50 72 127 182 170
245 395 575 1049 1460 1589 2150 472 602 707 894 1106 1373 96 116 201 242
233 281 33 38 109 129 170 201 61 71 118 139 126 149 16 18 12 19 -159 12
-485 -19 -1235 -121 -2095 -286 -152 -29 -395 -70 -418 -70 -9 0 -11 24 -6
103 21 312 66 1049 84 1377 9 146 18 297 21 336 l5 70 212 22 c117 13 316 34
442 47 370 40 609 64 785 80 91 8 215 19 275 24 61 6 223 20 360 31 138 11
324 27 415 35 149 14 460 36 1125 79 492 33 1412 77 1980 96 182 6 359 12 395
13 205 9 202 9 194 -15z m-11348 -420 c-9 -121 -24 -689 -36 -1378 -23 -1322
-32 -1745 -50 -2215 -6 -137 -15 -383 -20 -545 -6 -162 -15 -396 -20 -520 -6
-124 -15 -344 -20 -490 -6 -146 -15 -350 -20 -455 -6 -104 -17 -320 -25 -480
-41 -785 -147 -1239 -406 -1734 -342 -654 -857 -1127 -1535 -1409 -425 -177
-854 -249 -1214 -203 -445 56 -857 307 -1085 659 -117 182 -203 407 -254 665
-76 387 -114 633 -237 1532 -13 99 -38 277 -54 395 -16 118 -34 253 -40 300
-20 161 -69 545 -84 655 -35 260 -190 1698 -226 2095 -11 124 -27 284 -35 355
-15 133 -39 387 -50 530 -3 44 -15 177 -26 295 -36 397 -78 912 -75 916 2 3
693 206 966 284 326 94 417 119 970 264 l355 94 7 -42 c3 -22 7 -176 7 -341 1
-299 12 -884 31 -1700 6 -236 15 -626 20 -865 13 -554 37 -1391 49 -1692 6
-128 13 -345 16 -483 16 -758 34 -1233 56 -1460 35 -376 118 -553 299 -639 56
-26 77 -31 145 -31 113 0 171 23 250 96 128 121 225 374 260 681 12 108 15
278 14 918 -1 432 -3 855 -4 940 -2 85 -6 317 -9 515 -4 198 -9 455 -11 570
-2 116 -7 368 -10 560 -16 1052 -37 1887 -66 2688 -6 174 -8 312 -3 317 20 17
752 170 1629 340 231 45 438 85 460 90 91 18 89 21 81 -72z m-8896 -1573 c357
-44 730 -208 1020 -450 102 -85 311 -301 391 -405 302 -388 552 -938 739
-1627 97 -360 140 -575 194 -973 47 -341 51 -421 51 -915 -1 -482 -4 -543 -51
-920 -20 -162 -60 -416 -86 -548 -11 -59 -19 -109 -17 -111 2 -2 103 -64 224
-138 121 -74 261 -160 310 -192 238 -152 736 -473 871 -562 l152 -99 -69 -170
c-74 -184 -235 -602 -414 -1080 -118 -311 -304 -798 -308 -801 -1 -2 -72 52
-157 118 -85 66 -243 186 -350 266 -107 80 -316 236 -465 347 -148 111 -324
245 -389 299 -66 53 -123 93 -127 89 -4 -5 -44 -69 -89 -143 -244 -402 -535
-749 -837 -998 -247 -203 -571 -372 -856 -447 -231 -61 -516 -71 -725 -26
-565 123 -1088 533 -1537 1206 -728 1092 -1129 2564 -1102 4050 12 658 97
1175 287 1745 178 537 421 986 737 1367 106 128 341 358 471 461 413 328 953
567 1452 641 183 28 181 28 380 29 106 1 225 -4 300 -13z m20083 -72 c26 -9
47 -19 47 -22 0 -22 -202 -546 -258 -671 -86 -190 -148 -368 -197 -565 -25
-95 -177 -546 -418 -1235 -208 -597 -380 -1086 -381 -1087 -1 -2 -94 -7 -207
-13 -524 -27 -778 -41 -826 -46 -52 -6 -53 -6 -53 21 0 36 -58 95 -94 95 -59
0 -116 -50 -116 -102 0 -16 -1 -28 -2 -29 -8 -2 -763 -57 -765 -55 -2 1 165
211 325 411 l97 120 3 -47 c7 -102 119 -149 194 -81 45 40 40 134 -9 173 -29
23 -111 28 -131 8 -7 -7 -12 -9 -12 -5 0 20 893 1090 1274 1527 496 569 1452
1620 1474 1620 4 0 28 -8 55 -17z m-6401 -1535 c-316 -428 -780 -1079 -977
-1368 -95 -140 -166 -242 -176 -254 -5 -5 -6 6 -3 25 2 19 29 237 59 484 53
435 148 1198 149 1202 5 10 1103 230 1163 232 18 1 -21 -58 -215 -321z m7464
-2833 c243 -34 494 -115 656 -211 96 -58 254 -208 317 -302 104 -155 151 -303
151 -471 -1 -440 -280 -827 -776 -1075 -487 -244 -1209 -272 -1576 -62 -209
119 -336 269 -430 507 -86 220 -91 505 -13 774 69 237 197 422 392 569 206
154 450 254 704 286 102 12 441 4 575 -15z m-3655 -2538 c15 -23 53 -89 85
-147 100 -183 167 -265 311 -377 188 -147 403 -241 626 -276 l79 -12 43 -118
c132 -356 395 -756 662 -1008 l70 -66 -98 -7 c-363 -23 -791 -125 -1129 -268
-946 -401 -1652 -1199 -1934 -2189 -60 -208 -114 -489 -128 -657 l-3 -33 -80
62 c-467 359 -995 567 -1575 619 -478 43 -965 -51 -1393 -267 -588 -298 -1016
-811 -1257 -1508 -35 -103 -93 -313 -115 -422 l-6 -32 -101 89 c-476 428
-1038 706 -1646 815 -314 56 -623 66 -944 30 -558 -62 -1146 -281 -1657 -616
-58 -38 -107 -69 -110 -69 -3 0 -28 60 -54 133 -60 164 -194 441 -289 601
-523 874 -1380 1431 -2373 1542 -376 41 -799 11 -1187 -87 -64 -16 -119 -29
-122 -29 -3 0 -6 44 -6 98 0 319 -64 731 -166 1074 -24 81 -44 153 -44 159 0
6 32 46 72 89 159 176 214 268 292 485 67 186 137 369 146 378 4 4 43 -14 87
-42 170 -105 334 -175 553 -234 113 -31 257 -57 314 -57 23 0 58 -9 79 -20 43
-23 87 -26 125 -6 15 7 68 17 117 20 98 8 298 38 385 59 l55 13 0 -57 c0 -50
4 -62 29 -88 18 -18 47 -34 77 -41 43 -11 53 -10 86 7 78 41 96 145 35 206
l-31 31 130 48 c117 44 134 48 164 38 50 -16 106 2 145 47 28 31 30 38 16 43
-12 4 7 19 66 50 448 237 803 501 1613 1200 213 184 508 432 568 479 16 13 17
10 12 -55 -3 -38 -14 -186 -25 -329 -11 -143 -29 -375 -41 -515 -29 -363 -45
-600 -40 -600 2 0 153 113 337 251 l333 250 118 39 c581 191 1246 371 1583
430 207 36 345 89 540 208 109 66 320 174 333 169 20 -6 37 -100 48 -277 7
-96 13 -176 14 -178 1 -1 135 35 296 82 348 100 657 174 1094 261 335 67 425
84 900 164 1121 191 2036 288 3050 325 280 10 343 10 360 -1 30 -20 70 -16
102 11 15 13 54 29 86 36 63 13 215 62 244 79 32 18 47 12 74 -32z"/>
<path d="M16402 23181 c-8 -5 -12 -21 -10 -37 4 -35 44 -47 65 -18 17 23 16
29 -3 48 -17 18 -32 20 -52 7z"/>
<path d="M15980 22860 c-58 -58 20 -142 88 -94 15 10 22 25 22 49 0 58 -69 86
-110 45z"/>
<path d="M16735 22808 c-27 -15 -35 -28 -35 -60 0 -32 35 -68 66 -68 12 0 33
10 48 21 33 26 29 61 -10 97 -28 25 -40 26 -69 10z"/>
<path d="M15588 22554 c-55 -29 -66 -99 -22 -139 82 -76 208 52 129 130 -28
28 -66 32 -107 9z"/>
<path d="M16294 22466 c-39 -39 -43 -71 -14 -108 25 -32 71 -42 115 -24 62 26
74 89 26 137 -41 41 -83 39 -127 -5z"/>
<path d="M17041 22406 c-33 -35 -31 -93 4 -123 37 -32 80 -30 116 6 31 31 36
59 17 94 -28 53 -98 65 -137 23z"/>
<path d="M12975 22398 c-28 -16 -35 -28 -35 -65 0 -66 74 -97 118 -50 12 13
22 35 22 49 0 52 -62 91 -105 66z"/>
<path d="M13681 22324 c-47 -60 -7 -144 69 -144 33 0 80 53 80 90 0 73 -104
111 -149 54z"/>
<path d="M14438 22284 c-57 -30 -65 -98 -19 -145 76 -76 202 17 151 112 -12
22 -61 49 -87 49 -10 -1 -30 -7 -45 -16z"/>
<path d="M15160 22228 c-13 -7 -31 -25 -40 -40 -13 -24 -13 -32 0 -69 19 -53
58 -83 107 -82 80 2 123 107 70 168 -27 32 -97 44 -137 23z"/>
<path d="M15933 22173 c-32 -6 -73 -59 -73 -94 0 -44 25 -84 64 -103 49 -23
73 -20 107 13 24 25 29 37 29 81 0 41 -5 56 -25 75 -13 14 -31 25 -39 25 -8 0
-20 2 -28 4 -7 2 -23 1 -35 -1z"/>
<path d="M20012 22118 c-27 -27 -6 -68 34 -68 33 0 49 25 36 55 -13 27 -49 34
-70 13z"/>
<path d="M16632 22085 l-31 -35 31 -70 c17 -39 39 -72 49 -75 54 -18 119 41
119 107 0 32 -7 47 -34 74 -47 47 -92 47 -134 -1z"/>
<path d="M12642 21983 c-12 -37 -20 -69 -17 -71 10 -10 61 26 69 51 11 29 -1
78 -19 84 -6 2 -21 -27 -33 -64z"/>
<path d="M17377 22029 c-9 -5 -24 -24 -33 -41 -47 -91 60 -185 145 -126 86 58
51 178 -51 178 -24 0 -51 -5 -61 -11z"/>
<path d="M13292 22013 c-7 -3 -19 -18 -27 -33 -36 -70 -3 -150 61 -150 42 0
89 23 104 49 19 36 12 90 -15 116 -18 19 -34 25 -67 24 -24 0 -49 -3 -56 -6z"/>
<path d="M14044 21970 c-64 -26 -86 -125 -39 -172 66 -67 185 -20 185 72 0 37
-30 81 -65 96 -39 16 -51 16 -81 4z"/>
<path d="M18085 21912 c-18 -47 11 -106 60 -122 49 -16 106 11 119 58 5 18 7
35 4 38 -3 3 -45 13 -92 23 -72 14 -86 15 -91 3z"/>
<path d="M14762 21900 c-40 -25 -64 -77 -55 -120 3 -17 20 -47 38 -66 25 -27
40 -34 69 -34 137 0 175 174 50 226 -45 19 -63 18 -102 -6z"/>
<path d="M18865 21883 c-28 -7 -35 -21 -35 -70 0 -33 5 -46 26 -62 81 -64 186
33 123 113 -20 26 -59 32 -114 19z"/>
<path d="M15524 21849 c-67 -19 -99 -93 -70 -162 28 -67 128 -87 182 -36 91
85 8 232 -112 198z"/>
<path d="M19599 21802 c-28 -23 -30 -73 -4 -102 24 -26 79 -26 105 0 63 63
-31 158 -101 102z"/>
<path d="M17005 21722 c-58 -19 -85 -60 -85 -127 0 -43 4 -56 29 -79 38 -36
101 -46 146 -22 40 22 55 53 55 112 0 59 -28 100 -78 114 -40 11 -38 11 -67 2z"/>
<path d="M12891 21686 c-70 -39 -65 -155 8 -186 84 -34 169 42 141 126 -22 64
-91 92 -149 60z"/>
<path d="M13640 21653 c-24 -9 -60 -45 -60 -60 0 -8 46 -36 102 -63 88 -42
104 -47 111 -34 14 25 10 82 -6 108 -27 41 -101 66 -147 49z"/>
<path d="M17723 21646 c-116 -52 -55 -235 70 -212 37 7 81 48 90 84 21 88 -75
166 -160 128z"/>
<path d="M14362 21573 c-98 -48 -98 -165 -1 -216 79 -42 179 16 179 103 0 55
-22 94 -64 114 -43 20 -72 20 -114 -1z"/>
<path d="M18460 21573 c-25 -13 -39 -29 -49 -59 -13 -37 -12 -44 5 -80 44 -89
188 -71 209 27 18 81 -86 152 -165 112z"/>
<path d="M15093 21510 c-39 -23 -63 -67 -63 -114 0 -55 2 -55 178 -4 60 18 72
24 72 42 0 75 -113 121 -187 76z"/>
<path d="M19194 21492 c-69 -56 -57 -152 23 -183 88 -33 167 108 98 176 -29
30 -89 33 -121 7z"/>
<path d="M19939 21420 c-29 -17 -43 -66 -29 -100 15 -36 37 -50 77 -50 63 0
99 61 69 118 -8 16 -23 32 -31 36 -24 9 -67 7 -86 -4z"/>
<path d="M12504 21370 c-66 -27 -95 -122 -54 -180 64 -90 200 -40 200 74 0 31
-7 45 -39 77 -39 39 -65 46 -107 29z"/>
<path d="M17330 21329 c-35 -14 -80 -59 -80 -81 0 -18 87 -81 169 -123 35 -17
35 -17 57 9 87 100 -21 244 -146 195z"/>
<path d="M18065 21263 c-63 -17 -106 -94 -86 -156 17 -52 53 -79 108 -84 62
-6 98 9 123 49 29 47 26 109 -5 147 -14 16 -34 32 -43 35 -36 10 -78 14 -97 9z"/>
<path d="M18788 21175 c-30 -17 -58 -62 -58 -95 0 -11 7 -36 14 -55 18 -43 34
-44 137 -10 82 28 91 38 77 91 -17 67 -108 104 -170 69z"/>
<path d="M12120 21033 c-62 -19 -90 -56 -90 -121 0 -107 133 -146 205 -61 33
40 40 72 25 109 -18 44 -98 86 -140 73z"/>
<path d="M20284 21026 c-67 -30 -82 -90 -35 -137 37 -36 94 -40 135 -8 21 16
26 29 26 63 0 70 -62 110 -126 82z"/>
<path d="M12830 20973 c-47 -17 -90 -83 -90 -138 0 -49 59 -113 112 -122 69
-11 86 1 124 81 34 71 35 75 20 110 -24 58 -104 92 -166 69z"/>
<path d="M9557 20789 c4 -13 8 -18 11 -10 2 7 -1 18 -6 23 -8 8 -9 4 -5 -13z"/>
<path d="M11702 20713 c-13 -2 -39 -21 -59 -40 -33 -33 -35 -39 -31 -85 12
-121 160 -166 225 -69 27 40 29 80 7 128 -26 53 -80 79 -142 66z"/>
<path d="M19875 20711 c-11 -5 -29 -18 -40 -30 -19 -22 -19 -23 5 -94 31 -91
50 -111 99 -103 56 8 91 54 91 117 0 45 -4 55 -34 85 -35 35 -75 43 -121 25z"/>
<path d="M12402 20630 c-55 -34 -77 -112 -47 -170 66 -128 255 -83 255 62 0
100 -119 162 -208 108z"/>
<path d="M20599 20611 c-39 -39 -41 -100 -4 -136 36 -37 97 -35 136 4 31 31
37 67 18 104 -32 63 -102 75 -150 28z"/>
<path d="M10995 20586 c-63 -11 -68 -13 -48 -24 35 -19 96 -15 121 8 36 34 37
34 -73 16z"/>
<path d="M9814 20436 c-74 -63 8 -196 84 -139 15 11 33 32 41 48 24 49 -24
115 -84 115 -8 0 -26 -11 -41 -24z"/>
<path d="M10554 20405 c-65 -33 -78 -120 -25 -167 100 -89 240 48 146 142 -37
37 -80 45 -121 25z"/>
<path d="M11273 20350 c-40 -24 -56 -54 -56 -105 0 -97 97 -152 189 -109 94
45 80 177 -23 220 -44 19 -72 17 -110 -6z"/>
<path d="M20210 20312 c-95 -47 -83 -182 20 -213 32 -10 44 -9 76 7 105 52
103 165 -3 210 -42 18 -51 18 -93 -4z"/>
<path d="M12014 20301 c-48 -22 -74 -68 -74 -133 0 -107 109 -172 198 -118 97
59 96 214 -3 256 -45 18 -71 17 -121 -5z"/>
<path d="M20926 20210 c-43 -38 -51 -71 -31 -115 30 -62 126 -83 169 -37 93
104 -33 244 -138 152z"/>
<path d="M21686 20137 c-34 -34 -34 -80 -1 -112 39 -40 104 -27 125 24 20 49
-10 95 -68 107 -25 5 -36 1 -56 -19z"/>
<path d="M10172 20070 c-69 -16 -101 -84 -67 -145 20 -38 52 -55 101 -55 54 0
104 53 104 109 0 44 -33 91 -64 91 -8 0 -20 2 -28 4 -7 2 -28 0 -46 -4z"/>
<path d="M10859 20007 c-42 -28 -68 -93 -52 -129 9 -20 27 -28 109 -47 96 -22
98 -22 117 -3 27 27 34 100 13 140 -32 63 -124 82 -187 39z"/>
<path d="M22428 20024 c-13 -12 6 -45 30 -51 31 -7 56 7 60 36 3 19 -1 21 -41
21 -24 0 -46 -3 -49 -6z"/>
<path d="M11599 19957 c-45 -30 -73 -87 -65 -132 8 -42 17 -43 149 -20 126 23
139 28 131 62 -23 98 -134 145 -215 90z"/>
<path d="M20563 19918 c-48 -13 -83 -60 -83 -115 0 -38 5 -50 34 -79 30 -30
41 -34 84 -34 61 0 97 25 111 78 13 44 0 101 -28 126 -26 24 -79 34 -118 24z"/>
<path d="M21302 19839 c-36 -11 -72 -59 -72 -97 0 -31 26 -79 49 -92 37 -19
96 -12 124 15 39 40 41 133 3 164 -20 16 -67 21 -104 10z"/>
<path d="M22030 19753 c-56 -22 -68 -87 -24 -128 55 -51 144 -19 144 51 0 51
-71 96 -120 77z"/>
<path d="M9716 19709 c-45 -54 -29 -132 35 -165 74 -38 149 10 149 96 0 23
-10 42 -34 66 -29 29 -41 34 -79 34 -38 0 -49 -5 -71 -31z"/>
<path d="M10431 19640 c-31 -50 -24 -112 18 -153 17 -17 33 -28 37 -24 7 7
-13 156 -25 190 -8 21 -9 20 -30 -13z"/>
<path d="M22776 19641 c-23 -26 -17 -52 16 -70 24 -14 28 -14 47 3 26 24 27
48 3 69 -24 22 -45 21 -66 -2z"/>
<path d="M20863 19520 c-13 -5 -23 -14 -23 -19 0 -5 46 -28 103 -50 82 -32
103 -37 105 -25 5 19 -22 59 -51 79 -30 19 -105 28 -134 15z"/>
<path d="M10085 19346 c-50 -22 -68 -51 -73 -116 -4 -55 -2 -61 26 -90 40 -40
102 -44 157 -10 41 26 57 55 57 105 0 52 -22 88 -67 109 -40 19 -60 20 -100 2z"/>
<path d="M9696 19010 c-40 -12 -64 -38 -77 -80 -24 -81 31 -150 120 -150 36 0
49 6 77 34 89 89 1 232 -120 196z"/>
<path d="M10392 18960 c-60 -37 -81 -134 -42 -198 25 -40 81 -77 91 -59 8 15
36 154 45 225 l7 52 -34 0 c-19 0 -49 -9 -67 -20z"/>
<path d="M9325 18623 c-21 -32 -51 -74 -67 -95 l-28 -36 26 -21 c53 -42 108
-39 156 6 37 35 45 84 23 133 -15 33 -51 70 -68 70 -2 0 -21 -26 -42 -57z"/>
<path d="M8960 18204 c-41 -36 -76 -69 -78 -74 -2 -4 10 -11 27 -15 40 -9 98
19 122 59 19 31 25 81 11 90 -4 2 -41 -25 -82 -60z"/>
<path d="M5723 14699 c-149 -22 -426 -143 -576 -250 -113 -81 -307 -281 -387
-400 -290 -433 -423 -1052 -390 -1808 17 -388 55 -658 140 -1016 63 -267 196
-642 297 -837 137 -266 343 -422 647 -490 172 -38 294 -15 510 95 130 66 241
149 350 261 l89 90 -43 36 c-46 37 -254 197 -545 417 -99 75 -184 139 -189
144 -12 11 21 63 460 725 215 325 404 612 419 637 15 26 28 47 30 47 3 0 91
-49 267 -146 53 -30 99 -54 104 -54 11 0 -4 406 -21 570 -49 457 -150 885
-296 1253 -159 400 -367 643 -609 711 -73 20 -181 27 -257 15z m-834 -1936
c84 -168 201 -499 266 -758 45 -178 45 -185 4 -151 -83 70 -216 -11 -179 -110
15 -38 49 -74 71 -74 10 0 20 -3 22 -7 3 -5 -27 -73 -65 -153 l-71 -145 -13
60 c-24 108 -63 377 -75 515 -20 223 -15 880 7 880 2 0 17 -26 33 -57z"/>
<path d="M24150 14644 c0 -10 5 -26 10 -34 8 -11 9 -7 4 15 -8 37 -14 45 -14
19z"/>
<path d="M23785 14388 c-32 -19 -44 -40 -45 -81 0 -48 23 -83 64 -97 41 -13
75 -2 105 36 64 81 -34 194 -124 142z"/>
<path d="M24135 13979 c-31 -18 -45 -40 -45 -73 1 -49 41 -86 94 -86 38 0 55
10 71 41 21 40 19 54 -12 89 -31 34 -78 46 -108 29z"/>
<path d="M22751 9994 c45 -47 69 -60 69 -38 0 22 -58 74 -83 74 -19 0 -17 -4
14 -36z"/>
<path d="M22650 9911 l-45 -6 32 -32 c26 -28 39 -33 76 -33 25 0 53 3 62 6 14
6 45 53 45 69 0 6 -109 4 -170 -4z"/>
<path d="M22225 9678 c-47 -42 -50 -123 -6 -162 29 -26 100 -32 139 -12 39 20
52 44 52 96 0 33 -6 48 -29 71 -25 24 -38 29 -80 29 -37 0 -56 -6 -76 -22z"/>
<path d="M21614 9582 c-71 -42 -76 -47 -51 -50 15 -2 44 5 64 15 36 19 81 68
72 78 -3 2 -41 -17 -85 -43z"/>
<path d="M22988 9580 c-24 -25 -29 -36 -23 -58 25 -100 155 -84 155 19 0 28
-44 69 -75 69 -16 0 -39 -12 -57 -30z"/>
<path d="M21873 9373 c-59 -12 -98 -94 -73 -153 44 -106 181 -106 210 -1 24
90 -48 172 -137 154z"/>
<path d="M21212 9284 c-88 -81 -94 -102 -28 -90 49 9 104 59 112 101 13 72 3
70 -84 -11z"/>
<path d="M22585 9255 c-54 -54 -15 -140 62 -138 41 1 83 38 83 74 0 28 -26 75
-45 83 -35 13 -76 6 -100 -19z"/>
<path d="M21448 9024 c-37 -19 -58 -63 -58 -116 1 -68 36 -98 112 -98 50 0 82
19 103 60 53 103 -56 210 -157 154z"/>
<path d="M22176 8919 c-37 -44 -32 -102 13 -136 25 -20 49 -15 97 17 37 26 44
36 44 64 0 80 -102 117 -154 55z"/>
<path d="M21038 8684 c-30 -16 -58 -61 -58 -94 0 -102 126 -159 201 -92 26 23
33 38 37 80 4 49 2 54 -31 87 -29 29 -42 35 -78 35 -24 -1 -56 -7 -71 -16z"/>
<path d="M21800 8623 c-24 -9 -52 -36 -61 -60 -19 -50 33 -133 84 -133 33 0
107 78 107 113 0 57 -71 101 -130 80z"/>
<path d="M20653 8375 c-94 -41 -97 -187 -5 -231 101 -48 205 58 157 160 -31
66 -96 96 -152 71z"/>
<path d="M21405 8281 c-57 -24 -79 -95 -46 -148 50 -79 181 -41 181 53 0 64
-79 119 -135 95z"/>
<path d="M12370 8170 c0 -18 65 -83 97 -96 44 -19 99 -17 134 3 16 10 29 20
29 24 0 4 -39 19 -87 34 -49 14 -101 31 -117 36 -37 12 -56 11 -56 -1z"/>
<path d="M18865 8098 c-44 -4 -107 -14 -140 -21 -53 -10 -60 -15 -63 -37 -1
-14 8 -45 20 -70 57 -112 218 -116 274 -7 24 45 21 150 -4 146 -4 -1 -43 -6
-87 -11z"/>
<path d="M19436 8028 c-20 -49 -15 -94 15 -132 75 -96 220 -60 242 59 3 17 3
36 -1 42 -7 11 -131 51 -208 67 -30 7 -32 5 -48 -36z"/>
<path d="M12050 8012 c-68 -37 -98 -159 -54 -219 30 -41 87 -67 130 -58 46 8
111 67 120 108 17 75 -5 132 -66 166 -46 26 -85 27 -130 3z"/>
<path d="M12783 7965 c-34 -15 -68 -61 -78 -106 -16 -73 47 -171 119 -185 105
-19 207 82 182 181 -11 45 -64 94 -119 110 -61 18 -63 18 -104 0z"/>
<path d="M20983 7930 c-52 -31 -68 -64 -54 -110 29 -98 151 -108 195 -15 22
46 14 87 -26 120 -35 30 -72 32 -115 5z"/>
<path d="M18346 7827 c-56 -32 -81 -70 -81 -122 0 -77 61 -136 148 -143 103
-8 154 39 150 140 -3 120 -115 184 -217 125z"/>
<path d="M10256 7718 c7 -89 14 -128 23 -128 4 0 20 13 35 29 40 42 39 96 -3
133 -50 45 -60 38 -55 -34z"/>
<path d="M19097 7759 c-80 -42 -96 -151 -33 -215 112 -111 281 31 208 176 -30
61 -103 77 -175 39z"/>
<path d="M10908 7704 c-61 -32 -75 -114 -30 -165 37 -42 110 -51 159 -20 59
37 63 136 6 181 -31 24 -95 26 -135 4z"/>
<path d="M19850 7696 c-44 -14 -80 -67 -80 -117 0 -68 84 -138 148 -123 90 22
130 124 74 189 -44 51 -91 68 -142 51z"/>
<path d="M11634 7637 c-68 -62 -51 -168 33 -203 107 -45 208 63 158 170 -21
44 -59 66 -115 66 -32 0 -48 -7 -76 -33z"/>
<path d="M12393 7611 c-119 -74 -92 -243 41 -258 57 -7 97 9 136 54 34 38 39
82 16 137 -30 71 -130 106 -193 67z"/>
<path d="M20595 7601 c-38 -16 -58 -49 -58 -93 0 -54 44 -98 99 -98 80 0 125
103 72 165 -25 28 -79 41 -113 26z"/>
<path d="M13118 7540 c-45 -24 -76 -62 -84 -105 -8 -46 25 -119 65 -139 43
-23 128 -21 169 4 59 36 79 126 42 188 -42 68 -120 89 -192 52z"/>
<path d="M17950 7487 c-46 -30 -72 -78 -73 -135 -2 -62 21 -98 80 -124 57 -25
101 -18 148 23 82 72 65 205 -31 245 -48 20 -86 17 -124 -9z"/>
<path d="M18689 7425 c-15 -8 -34 -30 -43 -49 -38 -81 -6 -169 72 -196 37 -13
47 -13 84 0 112 39 117 184 9 240 -47 23 -85 25 -122 5z"/>
<path d="M10550 7363 c-35 -13 -60 -47 -60 -82 0 -59 6 -62 92 -37 43 12 80
25 84 29 15 14 -20 70 -52 83 -36 15 -41 15 -64 7z"/>
<path d="M19445 7341 c-35 -15 -57 -49 -62 -96 l-6 -45 122 0 121 0 0 35 c0
54 -52 106 -110 111 -25 2 -54 0 -65 -5z"/>
<path d="M12010 7258 c-23 -9 -18 -12 60 -39 47 -16 86 -29 88 -29 12 0 -26
45 -51 60 -35 22 -59 24 -97 8z"/>
<path d="M20169 7241 c-22 -23 -29 -39 -29 -68 0 -52 15 -70 72 -84 58 -16 90
-4 113 41 49 95 -80 187 -156 111z"/>
<path d="M12724 7191 c-41 -25 -68 -83 -59 -128 7 -41 65 -108 101 -117 61
-16 124 31 144 104 30 110 -89 200 -186 141z"/>
<path d="M20916 7158 c-37 -53 -5 -118 57 -118 42 0 70 29 70 70 0 43 -28 70
-74 70 -28 0 -42 -6 -53 -22z"/>
<path d="M13492 7159 c-99 -20 -135 -151 -63 -231 24 -27 36 -32 89 -36 59 -4
63 -3 96 30 44 44 54 93 31 153 -26 69 -81 99 -153 84z"/>
<path d="M17583 7163 c-34 -7 -68 -45 -88 -97 -18 -47 -18 -48 4 -92 47 -98
171 -106 234 -14 35 51 12 161 -40 188 -24 13 -82 21 -110 15z"/>
<path d="M15367 7139 c-38 -4 -71 -10 -74 -12 -11 -12 51 -40 96 -45 54 -5
115 18 132 49 9 17 6 19 -38 18 -26 -1 -79 -5 -116 -10z"/>
<path d="M16010 7102 c0 -18 40 -59 70 -72 38 -16 126 -8 147 12 13 14 6 18
-64 36 -109 29 -153 36 -153 24z"/>
<path d="M18325 7096 c-37 -16 -83 -68 -92 -104 -14 -59 51 -152 107 -152 9 0
47 19 83 43 66 42 66 42 67 89 0 54 -33 102 -87 124 -39 17 -40 17 -78 0z"/>
<path d="M14977 7028 c-113 -30 -146 -164 -62 -254 27 -29 39 -34 76 -34 59 0
105 30 129 83 56 123 -23 236 -143 205z"/>
<path d="M15696 6965 c-121 -42 -142 -180 -37 -251 61 -41 157 -28 193 28 40
61 30 132 -25 186 -44 42 -83 53 -131 37z"/>
<path d="M16425 6880 c-64 -26 -95 -123 -60 -189 20 -39 82 -70 141 -71 110 0
148 160 57 240 -26 24 -43 30 -76 29 -23 0 -51 -4 -62 -9z"/>
<path d="M13075 6786 c-42 -18 -65 -57 -65 -110 0 -89 76 -136 165 -101 55 21
75 47 75 101 0 49 -28 90 -76 110 -41 17 -60 17 -99 0z"/>
<path d="M17883 6734 c-62 -31 -77 -111 -31 -169 75 -96 218 -54 218 65 0 92
-99 147 -187 104z"/>
<path d="M13823 6729 c-39 -11 -79 -61 -88 -110 -19 -103 114 -181 194 -113
17 14 31 33 31 42 0 9 -11 53 -25 98 -29 96 -40 104 -112 83z"/>
<path d="M14554 6666 c-105 -47 -98 -205 12 -235 102 -28 194 78 147 168 -34
65 -101 93 -159 67z"/>
<path d="M15283 6595 c-81 -35 -84 -178 -5 -219 49 -25 94 -28 131 -9 101 53
89 203 -18 233 -47 13 -69 12 -108 -5z"/>
<path d="M15995 6507 c-57 -57 -59 -135 -5 -188 70 -70 210 -4 210 99 0 73
-50 122 -126 122 -39 0 -51 -5 -79 -33z"/>
<path d="M16734 6436 c-29 -29 -34 -41 -34 -81 0 -40 5 -52 34 -81 29 -29 41
-34 81 -34 40 0 52 5 81 34 29 29 34 41 34 81 0 40 -5 52 -34 81 -29 29 -41
34 -81 34 -40 0 -52 -5 -81 -34z"/>
<path d="M17494 6381 c-80 -49 -58 -174 36 -209 53 -20 134 32 146 94 12 62
-53 134 -121 134 -16 0 -44 -9 -61 -19z"/>
<path d="M13391 6354 c-76 -63 -30 -184 70 -184 79 0 128 81 94 153 -29 61
-110 77 -164 31z"/>
<path d="M14132 6296 c-34 -31 -37 -39 -37 -86 0 -46 4 -55 33 -81 63 -57 163
-23 192 66 22 66 -36 135 -114 135 -27 0 -46 -8 -74 -34z"/>
<path d="M14880 6247 c-67 -23 -90 -127 -40 -177 51 -51 156 -44 190 13 63
103 -32 206 -150 164z"/>
<path d="M15626 6185 c-34 -18 -55 -43 -56 -67 0 -16 10 -18 79 -18 43 0 93
-3 110 -6 27 -6 31 -4 25 12 -14 45 -29 64 -59 79 -41 19 -62 19 -99 0z"/>
<path d="M16357 6129 c-39 -23 -64 -124 -34 -146 22 -18 138 -55 153 -49 23 9
54 69 54 105 0 24 -9 42 -34 67 -28 28 -41 34 -77 34 -24 0 -52 -5 -62 -11z"/>
<path d="M17120 6053 c-84 -31 -88 -154 -7 -188 86 -36 165 52 126 139 -18 38
-79 64 -119 49z"/>
<path d="M13747 5959 c-27 -16 -49 -67 -42 -99 9 -39 58 -80 97 -80 75 0 118
111 63 165 -26 27 -84 34 -118 14z"/>
<path d="M14487 5894 c-44 -24 -26 -27 24 -4 26 11 36 19 24 19 -11 0 -33 -7
-48 -15z"/>
<path d="M17435 5605 c-33 -32 -33 -74 0 -105 33 -31 82 -31 107 -1 26 33 24
96 -4 115 -33 23 -75 20 -103 -9z"/>
<path d="M15340 26860 c-8 -14 -8 -26 0 -40 13 -25 31 -25 61 -1 23 19 24 19
5 40 -24 26 -52 27 -66 1z"/>
<path d="M16327 26782 c-10 -10 -17 -24 -17 -30 0 -17 37 -52 55 -52 19 0 55
35 55 54 0 42 -64 60 -93 28z"/>
<path d="M17312 26708 c-17 -17 -15 -64 4 -82 33 -33 94 -7 94 41 0 42 -68 71
-98 41z"/>
<path d="M18310 26610 c-25 -25 -25 -42 -2 -63 24 -22 55 -21 75 1 22 24 21
45 -1 65 -25 22 -48 21 -72 -3z"/>
<path d="M12834 26579 c-3 -6 1 -18 10 -27 15 -15 17 -15 32 0 19 19 11 38
-16 38 -10 0 -22 -5 -26 -11z"/>
<path d="M13810 26520 c-22 -22 -25 -42 -10 -71 12 -22 68 -27 88 -7 20 20 14
65 -10 82 -30 21 -44 20 -68 -4z"/>
<path d="M19302 26518 c-35 -35 4 -76 50 -52 33 17 34 25 10 47 -22 20 -43 22
-60 5z"/>
<path d="M14796 26449 c-52 -41 -23 -129 42 -129 36 0 72 37 72 74 0 31 -40
76 -68 76 -11 0 -31 -9 -46 -21z"/>
<path d="M20305 26390 c3 -5 10 -10 16 -10 5 0 9 5 9 10 0 6 -7 10 -16 10 -8
0 -12 -4 -9 -10z"/>
<path d="M15765 26365 c-45 -44 -27 -122 33 -143 65 -22 132 45 110 110 -21
60 -99 78 -143 33z"/>
<path d="M17745 26195 c-35 -34 -34 -93 1 -129 41 -41 117 -32 149 18 14 21
15 31 5 60 -24 73 -107 100 -155 51z"/>
<path d="M12292 26154 c-39 -27 -19 -94 28 -94 47 0 67 67 28 94 -12 9 -25 16
-28 16 -3 0 -16 -7 -28 -16z"/>
<path d="M18735 26105 c-54 -53 -16 -145 60 -145 61 0 99 61 75 119 -22 53
-95 67 -135 26z"/>
<path d="M13251 26074 c-26 -33 -27 -64 -1 -97 26 -33 63 -41 99 -23 32 17 41
34 41 77 0 67 -97 97 -139 43z"/>
<path d="M14226 26019 c-38 -30 -49 -63 -36 -110 13 -47 42 -69 93 -69 106 0
153 96 83 166 -42 42 -97 47 -140 13z"/>
<path d="M19735 26005 c-40 -39 -30 -86 23 -114 44 -23 102 16 102 69 0 29
-44 70 -75 70 -14 0 -37 -11 -50 -25z"/>
<path d="M15231 25946 c-32 -18 -50 -53 -51 -99 0 -52 52 -107 100 -107 59 0
120 58 120 115 0 75 -100 129 -169 91z"/>
<path d="M20742 25914 c-42 -29 -16 -104 35 -104 19 0 53 37 53 58 0 44 -52
72 -88 46z"/>
<path d="M10770 25765 c-11 -13 -11 -20 0 -40 17 -31 20 -31 44 2 19 25 19 26
1 39 -24 18 -30 17 -45 -1z"/>
<path d="M18224 25703 c-58 -11 -101 -108 -72 -163 17 -32 74 -70 105 -70 58
0 123 64 123 120 0 38 -36 90 -75 106 -35 14 -42 15 -81 7z"/>
<path d="M12705 25645 c-52 -51 -23 -155 46 -170 95 -21 159 97 90 166 -39 39
-100 41 -136 4z"/>
<path d="M19198 25614 c-63 -34 -79 -127 -32 -183 67 -79 204 -21 204 88 0 25
-9 42 -39 72 -43 43 -84 50 -133 23z"/>
<path d="M13693 25580 c-89 -54 -46 -210 58 -210 54 0 93 22 113 64 20 42 20
57 2 101 -26 61 -110 84 -173 45z"/>
<path d="M14705 25516 c-134 -60 -94 -246 53 -246 94 0 154 115 102 198 -20
33 -72 62 -107 62 -10 -1 -31 -7 -48 -14z"/>
<path d="M20200 25513 c-105 -41 -79 -192 33 -193 52 0 97 43 97 94 0 62 -76
120 -130 99z"/>
<path d="M10231 25321 c-23 -32 -19 -56 11 -72 22 -12 68 12 68 35 0 16 -38
66 -50 66 -5 0 -18 -13 -29 -29z"/>
<path d="M22165 25286 c-29 -29 -31 -43 -9 -74 10 -14 26 -22 44 -22 72 0 82
94 13 115 -17 4 -29 -1 -48 -19z"/>
<path d="M11190 25270 c-27 -27 -35 -65 -20 -101 15 -35 37 -49 80 -49 69 0
104 86 59 144 -26 33 -88 37 -119 6z"/>
<path d="M17648 25267 c-90 -75 -89 -197 3 -251 66 -39 149 -15 188 54 26 46
26 82 1 137 -35 78 -134 109 -192 60z"/>
<path d="M18665 25179 c-61 -19 -95 -65 -95 -127 0 -57 25 -98 75 -122 52 -25
68 -25 121 1 104 50 104 193 1 240 -46 21 -58 21 -102 8z"/>
<path d="M14151 25078 c-137 -71 -89 -268 65 -268 110 0 181 132 117 219 -51
67 -114 85 -182 49z"/>
<path d="M19614 25057 c-63 -58 -56 -165 14 -201 81 -42 169 -8 192 72 23 86
-33 162 -121 162 -42 0 -55 -5 -85 -33z"/>
<path d="M9674 24875 c-32 -49 23 -104 75 -75 24 12 29 68 9 88 -21 21 -66 14
-84 -13z"/>
<path d="M10674 24846 c-17 -8 -39 -24 -48 -37 -54 -78 38 -178 123 -134 88
45 67 187 -27 185 -9 -1 -31 -7 -48 -14z"/>
<path d="M22635 24768 c-49 -26 -58 -69 -24 -112 27 -34 71 -35 104 -1 14 13
25 31 25 39 0 28 -22 64 -47 75 -29 13 -33 13 -58 -1z"/>
<path d="M19090 24652 c-76 -38 -105 -146 -60 -220 57 -94 217 -86 264 12 37
78 9 166 -64 204 -53 27 -93 28 -140 4z"/>
<path d="M23636 24652 c-30 -34 -16 -70 24 -57 23 7 25 32 6 57 -12 17 -14 17
-30 0z"/>
<path d="M9137 24432 c-36 -40 -9 -102 45 -102 51 0 78 69 40 103 -24 22 -65
21 -85 -1z"/>
<path d="M10135 24401 c-39 -16 -60 -51 -60 -98 0 -38 5 -49 33 -74 18 -16 44
-29 58 -29 58 0 103 45 104 103 0 47 -22 82 -62 96 -36 13 -45 13 -73 2z"/>
<path d="M22093 24363 c-32 -6 -72 -51 -79 -88 -19 -105 113 -175 189 -99 77
77 -1 209 -110 187z"/>
<path d="M11093 24330 c-61 -37 -82 -123 -44 -184 51 -82 175 -96 219 -25 23
36 27 121 8 158 -21 40 -71 71 -116 71 -19 0 -49 -9 -67 -20z"/>
<path d="M23055 24218 c-21 -25 -25 -38 -21 -61 8 -41 22 -55 66 -67 97 -26
154 67 82 132 -45 40 -91 38 -127 -4z"/>
<path d="M24078 24119 c-23 -13 -23 -51 0 -72 39 -35 94 29 57 67 -19 18 -33
20 -57 5z"/>
<path d="M8619 23996 c-33 -16 -45 -61 -25 -91 24 -37 62 -43 92 -14 27 26 31
55 9 86 -18 26 -47 34 -76 19z"/>
<path d="M9578 23943 c-68 -42 -64 -146 8 -194 62 -41 142 -7 165 70 29 97
-84 179 -173 124z"/>
<path d="M10549 23877 c-79 -52 -87 -141 -19 -209 34 -34 43 -38 90 -38 47 0
56 4 90 38 24 24 41 52 45 75 14 74 -57 157 -135 157 -22 0 -51 -9 -71 -23z"/>
<path d="M22524 23821 c-54 -25 -84 -64 -84 -111 0 -49 28 -84 85 -106 84 -31
163 14 172 98 5 54 -23 103 -72 124 -44 18 -51 18 -101 -5z"/>
<path d="M23498 23690 c-27 -28 -30 -36 -25 -73 11 -84 99 -116 158 -58 21 22
29 39 29 66 0 27 -8 44 -29 66 -41 41 -91 40 -133 -1z"/>
<path d="M24516 23588 c-9 -12 -16 -33 -16 -45 0 -28 33 -63 58 -63 42 0 66
65 42 111 -15 27 -64 25 -84 -3z"/>
<path d="M8074 23543 c-25 -18 -34 -51 -22 -78 21 -46 83 -47 108 -2 13 24 13
30 0 55 -16 27 -62 41 -86 25z"/>
<path d="M9027 23490 c-30 -24 -50 -78 -42 -113 20 -78 128 -106 186 -48 21
22 29 39 29 66 0 43 -22 90 -49 105 -33 17 -96 12 -124 -10z"/>
<path d="M10022 23441 c-88 -56 -96 -177 -16 -240 20 -16 41 -21 82 -21 50 0
58 3 93 39 35 35 39 44 39 91 0 84 -46 139 -124 147 -29 3 -50 -2 -74 -16z"/>
<path d="M22984 23300 c-27 -11 -72 -65 -80 -96 -9 -35 3 -88 27 -118 24 -30
83 -49 129 -40 41 9 98 65 102 101 13 101 -90 189 -178 153z"/>
<path d="M23968 23174 c-99 -53 -34 -219 73 -188 79 23 100 121 39 177 -34 30
-70 34 -112 11z"/>
<path d="M8490 23031 c-37 -36 -46 -72 -31 -121 13 -42 61 -90 92 -90 58 0
119 69 119 135 0 29 -7 44 -34 71 -46 46 -104 48 -146 5z"/>
<path d="M24969 23050 c-25 -15 -32 -58 -14 -86 31 -48 105 -23 105 35 0 48
-49 75 -91 51z"/>
<path d="M9506 23000 c-42 -13 -85 -58 -97 -104 -14 -50 10 -117 51 -146 98
-70 238 4 228 121 -9 92 -97 154 -182 129z"/>
<path d="M5157 22983 c-3 -10 -18 -134 -33 -275 -15 -142 -30 -261 -33 -266
-3 -5 -115 -67 -248 -138 -134 -71 -243 -131 -243 -134 0 -4 113 -57 250 -120
138 -62 254 -118 257 -123 3 -6 28 -132 54 -280 27 -148 50 -271 52 -273 3 -3
298 317 357 387 l25 30 280 -39 c154 -22 282 -38 283 -37 2 2 -59 114 -136
250 l-140 247 125 255 c68 140 123 256 121 257 -2 2 -127 -23 -278 -55 l-275
-57 -95 88 c-52 49 -129 123 -170 165 -41 42 -92 90 -112 106 -32 26 -37 27
-41 12z"/>
<path d="M22446 22880 c-44 -14 -93 -67 -105 -114 -38 -151 138 -257 255 -154
45 40 64 77 64 127 0 88 -123 169 -214 141z"/>
<path d="M23398 22745 c-45 -31 -68 -71 -68 -120 0 -102 128 -170 217 -115 51
31 79 103 62 164 -24 86 -135 124 -211 71z"/>
<path d="M24406 22639 c-75 -59 -37 -189 56 -189 93 0 143 72 103 150 -30 57
-110 77 -159 39z"/>
<path d="M6986 22619 c-30 -24 -34 -59 -8 -82 58 -53 137 28 82 83 -25 25 -41
25 -74 -1z"/>
<path d="M27724 21823 c-618 -789 -603 -770 -586 -759 10 6 1146 807 1445
1018 l98 69 -188 199 c-103 109 -191 198 -194 199 -3 1 -262 -326 -575 -726z"/>
<path d="M25416 22509 c-32 -25 -33 -59 -3 -87 44 -42 107 -16 107 43 0 24 -7
39 -22 49 -30 21 -50 20 -82 -5z"/>
<path d="M23871 22222 c-73 -36 -98 -111 -62 -184 25 -53 65 -78 121 -78 91 0
150 77 135 176 -10 69 -48 104 -112 104 -26 0 -63 -8 -82 -18z"/>
<path d="M6458 22145 c-10 -21 -9 -29 5 -43 16 -15 19 -15 52 2 l35 19 -22 24
c-28 30 -56 29 -70 -2z"/>
<path d="M7409 22111 c-64 -65 -19 -171 73 -171 30 0 46 7 69 29 64 65 20 171
-71 171 -33 0 -48 -6 -71 -29z"/>
<path d="M25861 21964 c-12 -15 -21 -32 -21 -39 0 -7 9 -24 21 -39 38 -48 112
-23 112 39 0 62 -74 87 -112 39z"/>
<path d="M5942 21698 c-18 -18 -14 -38 7 -38 27 0 37 19 19 36 -11 11 -16 12
-26 2z"/>
<path d="M6901 21676 c-73 -41 -62 -143 18 -167 34 -10 44 -9 72 8 104 60 15
217 -90 159z"/>
<path d="M26332 21433 c-31 -28 -35 -56 -11 -86 23 -31 45 -34 77 -11 28 19
29 67 2 94 -25 25 -42 25 -68 3z"/>
<path d="M6363 21212 c-32 -25 -44 -65 -32 -102 29 -83 151 -59 166 33 5 31 1
42 -17 62 -28 30 -84 33 -117 7z"/>
<path d="M7324 21161 c-69 -42 -96 -125 -58 -179 33 -48 139 -72 192 -43 56
30 79 124 45 182 -33 56 -120 76 -179 40z"/>
<path d="M28848 20677 c-554 -238 -1006 -433 -1004 -434 2 -2 2169 329 2174
332 2 2 -116 428 -139 503 -6 17 -14 32 -17 31 -4 -1 -460 -195 -1014 -432z"/>
<path d="M25768 21034 c-61 -33 -77 -123 -30 -174 69 -77 185 -43 199 57 13
97 -84 164 -169 117z"/>
<path d="M26778 20889 c-27 -16 -23 -65 7 -85 23 -15 27 -15 50 0 61 40 6 122
-57 85z"/>
<path d="M3328 20780 c-29 -32 -113 -122 -185 -198 l-133 -139 707 -499 c389
-275 739 -521 778 -548 38 -27 65 -43 59 -35 -189 247 -1158 1479 -1164 1479
-5 0 -32 -27 -62 -60z"/>
<path d="M5850 20752 c-48 -16 -64 -67 -34 -110 38 -54 141 2 118 65 -9 28
-58 54 -84 45z"/>
<path d="M6799 20705 c-29 -15 -59 -70 -59 -105 0 -62 60 -120 125 -120 61 0
115 59 115 125 0 30 -8 45 -39 76 -32 32 -45 39 -77 39 -22 -1 -51 -7 -65 -15z"/>
<path d="M25252 20619 c-68 -14 -121 -95 -107 -162 15 -66 76 -117 142 -117
30 0 89 32 110 59 60 77 16 192 -83 220 -16 4 -44 4 -62 0z"/>
<path d="M26228 20485 c-35 -20 -48 -44 -48 -90 0 -47 14 -71 52 -91 56 -29
123 2 143 67 8 25 -11 82 -34 103 -26 24 -81 29 -113 11z"/>
<path d="M27242 20335 c-12 -15 -22 -31 -22 -35 0 -15 30 -31 52 -28 30 4 35
37 10 68 l-18 23 -22 -28z"/>
<path d="M5291 20262 c-14 -27 -3 -58 25 -71 36 -16 40 -14 54 18 9 22 9 34 0
50 -14 27 -65 29 -79 3z"/>
<path d="M6244 20226 c-56 -56 -44 -135 26 -171 37 -19 63 -19 100 0 35 18 60
62 60 106 0 22 -10 41 -34 65 -28 28 -42 34 -76 34 -34 0 -48 -6 -76 -34z"/>
<path d="M7219 20186 c-60 -41 -80 -126 -46 -193 40 -76 150 -98 224 -44 44
32 73 83 73 130 0 34 -46 93 -91 117 -45 23 -118 18 -160 -10z"/>
<path d="M25672 20060 c-64 -39 -89 -118 -58 -178 47 -90 158 -103 225 -27 96
110 -43 281 -167 205z"/>
<path d="M26684 19940 c-55 -22 -71 -99 -30 -147 50 -58 158 -25 164 51 3 31
-2 42 -31 71 -35 35 -62 42 -103 25z"/>
<path d="M5713 19766 c-22 -19 -28 -32 -28 -66 0 -35 6 -47 33 -71 43 -39 84
-38 123 0 39 39 41 100 4 136 -33 34 -93 34 -132 1z"/>
<path d="M27694 19775 c-8 -19 12 -36 33 -28 19 7 12 37 -10 41 -9 2 -20 -4
-23 -13z"/>
<path d="M6704 19751 c-112 -52 -112 -206 0 -260 72 -35 127 -23 180 39 66 79
3 220 -104 236 -23 3 -50 -2 -76 -15z"/>
<path d="M27139 19395 c-35 -19 -51 -65 -37 -105 19 -55 90 -69 133 -25 42 41
30 102 -25 130 -35 18 -38 18 -71 0z"/>
<path d="M1780 19326 c0 -3 -25 -123 -55 -267 -30 -145 -52 -265 -49 -268 6
-6 2150 -182 2174 -178 7 1 -449 161 -1015 356 -567 195 -1036 356 -1042 359
-7 2 -13 2 -13 -2z"/>
<path d="M5196 19299 c-54 -42 -18 -129 54 -129 35 0 70 38 70 77 0 36 -38 73
-75 73 -12 0 -34 -9 -49 -21z"/>
<path d="M6181 19273 c-50 -26 -76 -66 -75 -117 2 -76 54 -126 134 -126 109 0
159 83 110 180 -36 70 -106 96 -169 63z"/>
<path d="M4681 18834 c-38 -27 -22 -84 25 -84 29 0 46 23 42 56 -4 34 -37 48
-67 28z"/>
<path d="M4570 17850 c-29 -29 -26 -74 6 -99 33 -26 55 -26 82 -3 32 26 37 63
12 95 -26 33 -71 36 -100 7z"/>
<path d="M4062 17378 c-30 -30 2 -84 34 -57 19 16 18 33 -4 52 -14 13 -21 14
-30 5z"/>
<path d="M27788 9809 c-25 -14 -22 -41 5 -66 37 -34 95 2 83 52 -5 20 -12 25
-39 25 -17 0 -40 -5 -49 -11z"/>
<path d="M28327 9701 c14 -13 1944 -1023 1947 -1019 1 1 45 119 97 260 91 244
95 257 75 262 -29 7 -1952 463 -2049 486 -44 10 -75 15 -70 11z"/>
<path d="M27084 9458 c80 -84 429 -438 775 -787 l628 -634 171 219 c95 120
171 219 169 220 -1 1 -326 196 -722 434 -396 237 -729 440 -740 450 -11 10
-36 25 -55 33 -19 8 -111 60 -204 116 l-168 102 146 -153z"/>
<path d="M26233 9530 c-40 -24 -53 -48 -53 -100 0 -107 98 -173 189 -125 32
16 61 69 61 112 0 62 -72 133 -135 133 -16 0 -44 -9 -62 -20z"/>
<path d="M25741 9089 c-51 -11 -92 -57 -98 -113 -12 -105 51 -155 183 -148 65
4 117 97 94 168 -21 64 -107 108 -179 93z"/>
<path d="M26695 8928 c-73 -87 45 -199 126 -119 37 37 38 79 3 120 -37 44 -91
44 -129 -1z"/>
<path d="M26150 8491 c-16 -16 -32 -40 -35 -54 -14 -53 48 -127 105 -127 91 0
136 115 71 181 -41 41 -101 41 -141 0z"/>
<path d="M27187 8364 c-14 -14 -7 -65 9 -71 26 -10 49 11 49 43 0 24 -5 30
-25 32 -14 2 -29 0 -33 -4z"/>
<path d="M25609 8052 c-24 -21 -32 -38 -36 -75 -5 -43 -3 -49 30 -82 30 -30
42 -35 82 -35 40 0 52 5 81 34 28 28 34 42 34 76 0 34 -6 48 -34 76 -29 29
-41 34 -80 34 -36 0 -52 -6 -77 -28z"/>
<path d="M26636 7929 c-31 -25 -34 -61 -6 -89 27 -27 56 -25 86 5 29 29 26 58
-8 88 -26 22 -40 22 -72 -4z"/>
<path d="M24094 7746 c-72 -31 -115 -142 -84 -216 41 -100 185 -117 263 -31
115 128 -21 316 -179 247z"/>
<path d="M25076 7619 c-56 -44 -70 -110 -36 -166 66 -109 230 -63 230 65 0 38
-5 50 -39 83 -33 34 -45 39 -83 39 -31 0 -54 -7 -72 -21z"/>
<path d="M26073 7474 c-48 -74 8 -160 87 -133 48 17 65 72 39 122 -16 30 -28
37 -71 37 -30 0 -41 -6 -55 -26z"/>
<path d="M23560 7299 c-90 -38 -129 -153 -77 -230 35 -52 82 -79 137 -79 32 0
58 7 81 23 103 69 106 197 7 270 -31 23 -111 32 -148 16z"/>
<path d="M24545 7195 c-50 -26 -75 -64 -75 -115 0 -85 57 -140 144 -140 119 0
165 151 72 238 -41 37 -90 43 -141 17z"/>
<path d="M7099 7171 c-23 -23 -29 -38 -29 -71 0 -117 167 -139 196 -26 25 100
-94 169 -167 97z"/>
<path d="M25538 7030 c-25 -26 -29 -36 -24 -63 13 -69 90 -98 141 -54 58 49
20 147 -56 147 -21 0 -40 -10 -61 -30z"/>
<path d="M24005 6731 c-89 -60 -84 -190 9 -232 53 -24 70 -24 123 2 89 43 98
144 19 218 -36 34 -110 39 -151 12z"/>
<path d="M6596 6684 c-24 -24 -20 -61 9 -80 23 -15 27 -15 50 0 30 20 33 56 7
79 -23 21 -46 22 -66 1z"/>
<path d="M7571 6646 c-13 -7 -30 -24 -37 -37 -56 -101 72 -197 158 -120 89 79
-16 215 -121 157z"/>
<path d="M24996 6594 c-59 -59 -20 -154 64 -154 55 0 90 34 90 88 0 53 -38 92
-90 92 -27 0 -45 -7 -64 -26z"/>
<path d="M26020 6465 c-16 -19 -3 -55 19 -55 10 0 26 9 35 19 16 18 16 20 -6
35 -28 20 -32 20 -48 1z"/>
<path d="M23475 6281 c-57 -25 -95 -73 -95 -118 0 -73 73 -153 139 -153 34 0
97 37 121 71 49 68 30 155 -42 199 -41 25 -71 25 -123 1z"/>
<path d="M24480 6162 c-95 -47 -65 -187 40 -187 107 0 134 149 35 191 -42 17
-33 17 -75 -4z"/>
<path d="M7034 6135 c-24 -24 -25 -28 -11 -48 8 -12 27 -26 42 -32 23 -8 30
-6 51 18 24 29 23 52 -4 75 -24 19 -50 14 -78 -13z"/>
<path d="M8024 6105 c-71 -36 -73 -134 -4 -170 53 -27 111 -12 136 36 21 42
17 75 -13 109 -34 37 -77 46 -119 25z"/>
<path d="M25488 6019 c-23 -13 -23 -31 1 -60 19 -23 19 -24 40 -5 24 21 27 46
9 64 -14 14 -27 15 -50 1z"/>
<path d="M5469 5472 l-1027 -366 125 -249 c122 -245 124 -248 146 -234 276
181 1806 1217 1796 1216 -8 -1 -476 -166 -1040 -367z"/>
<path d="M22935 5830 c-66 -27 -97 -132 -57 -196 39 -61 127 -79 188 -39 80
52 81 176 2 225 -34 21 -96 26 -133 10z"/>
<path d="M23918 5691 c-27 -24 -33 -36 -33 -71 0 -35 6 -47 33 -71 46 -42 93
-40 138 5 94 94 -39 226 -138 137z"/>
<path d="M7511 5604 c-27 -19 -27 -49 1 -68 19 -13 25 -14 43 -2 28 19 27 66
-1 77 -14 5 -29 2 -43 -7z"/>
<path d="M24690 5440 c-121 -141 -150 -169 -172 -170 -15 0 -109 9 -209 21
-99 11 -189 19 -200 17 -16 -3 -3 -30 96 -194 l115 -192 -92 -201 c-50 -111
-89 -203 -86 -206 3 -3 101 17 217 45 117 27 214 50 215 50 1 0 76 -67 167
-150 90 -82 167 -150 172 -150 4 0 7 12 7 28 0 15 7 115 16 223 l17 197 198
113 c109 62 197 114 196 115 -1 1 -94 40 -206 87 -112 47 -205 88 -208 91 -3
2 -25 100 -49 217 -24 116 -45 216 -46 220 -2 5 -68 -68 -148 -161z"/>
<path d="M8477 5569 c-22 -13 -47 -61 -47 -93 0 -14 11 -37 24 -53 19 -22 32
-28 66 -28 35 0 47 6 72 34 24 27 29 39 24 65 -12 62 -89 104 -139 75z"/>
<path d="M24934 5555 c-16 -24 -16 -27 1 -45 24 -26 47 -25 73 3 l22 23 -23
22 c-31 29 -53 28 -73 -3z"/>
<path d="M6535 4562 c-312 -510 -568 -933 -569 -941 -1 -9 88 -55 244 -126
135 -62 246 -111 248 -110 5 4 651 2099 648 2102 -1 2 -258 -414 -571 -925z"/>
<path d="M10425 5439 c-46 -41 -65 -78 -65 -129 0 -81 58 -140 139 -140 87 0
141 52 141 137 0 103 -50 163 -137 163 -33 0 -50 -7 -78 -31z"/>
<path d="M23376 5244 c-19 -20 -26 -37 -26 -66 0 -50 13 -74 52 -94 80 -41
167 35 138 121 -15 45 -44 65 -96 65 -31 0 -48 -6 -68 -26z"/>
<path d="M19895 5156 c-74 -33 -132 -128 -121 -200 13 -81 85 -146 162 -146
79 0 177 75 190 146 14 73 -36 161 -111 195 -47 22 -79 23 -120 5z"/>
<path d="M7962 5058 c-25 -25 -7 -68 28 -68 9 0 25 9 36 21 18 20 18 21 -6 40
-29 22 -42 23 -58 7z"/>
<path d="M20848 5020 c-54 -29 -82 -74 -82 -132 0 -52 19 -86 68 -122 20 -16
41 -21 85 -20 101 1 163 54 164 140 1 95 -56 154 -148 154 -29 -1 -65 -9 -87
-20z"/>
<path d="M8942 5015 c-56 -24 -67 -75 -26 -124 43 -52 113 -40 133 22 25 75
-35 132 -107 102z"/>
<path d="M9883 4935 c-33 -33 -35 -38 -31 -87 6 -60 36 -93 92 -104 118 -22
181 157 74 212 -49 25 -96 18 -135 -21z"/>
<path d="M21861 4922 c-39 -21 -71 -73 -71 -115 0 -67 58 -127 124 -127 53 0
85 17 114 60 43 64 17 146 -60 186 -36 19 -67 18 -107 -4z"/>
<path d="M10882 4880 c-85 -52 -80 -201 8 -248 39 -20 125 -10 155 18 47 44
56 139 18 197 -35 54 -121 69 -181 33z"/>
<path d="M11897 4825 c-124 -43 -143 -188 -36 -267 92 -69 229 6 229 124 0
100 -102 175 -193 143z"/>
<path d="M22844 4807 c-37 -32 -45 -110 -15 -149 58 -73 191 -24 191 71 -1 86
-110 134 -176 78z"/>
<path d="M19320 4679 c-14 -6 -37 -22 -53 -37 -132 -126 67 -351 221 -250 71
48 95 151 49 219 -42 63 -146 96 -217 68z"/>
<path d="M23872 4674 c-39 -27 -19 -94 27 -94 22 0 51 31 51 53 0 17 -34 57
-48 57 -4 0 -18 -7 -30 -16z"/>
<path d="M20332 4569 c-75 -38 -103 -129 -61 -198 54 -89 150 -111 216 -49 33
31 57 100 49 143 -9 47 -59 102 -104 115 -49 13 -51 13 -100 -11z"/>
<path d="M8417 4500 c-3 -10 1 -24 8 -30 19 -15 40 21 23 38 -17 17 -25 15
-31 -8z"/>
<path d="M9372 4470 c-49 -46 -11 -140 57 -140 63 0 91 90 45 141 -23 25 -74
24 -102 -1z"/>
<path d="M21311 4461 c-74 -69 -66 -177 15 -216 41 -19 68 -19 110 1 112 53
65 244 -60 244 -24 0 -43 -9 -65 -29z"/>
<path d="M10373 4410 c-48 -20 -71 -98 -44 -149 12 -22 60 -51 86 -51 33 0 77
32 91 67 17 40 7 88 -25 117 -23 21 -78 29 -108 16z"/>
<path d="M22317 4340 c-75 -60 -18 -181 77 -163 31 6 76 56 76 84 0 78 -93
126 -153 79z"/>
<path d="M11343 4334 c-55 -27 -78 -105 -49 -163 21 -40 59 -61 109 -61 53 0
93 27 114 77 44 106 -67 200 -174 147z"/>
<path d="M12290 4252 c-42 -42 -56 -99 -39 -153 19 -59 55 -82 132 -87 57 -4
66 -1 94 22 79 67 61 193 -33 232 -19 8 -54 14 -79 14 -38 0 -52 -5 -75 -28z"/>
<path d="M18794 4201 c-52 -32 -74 -68 -74 -123 0 -58 17 -94 64 -136 47 -41
85 -48 138 -24 68 31 101 72 106 134 3 47 0 58 -26 94 -51 70 -143 95 -208 55z"/>
<path d="M23324 4195 c-16 -24 -16 -27 2 -46 34 -38 92 0 73 49 -12 31 -54 29
-75 -3z"/>
<path d="M8687 4139 c-13 -30 -38 -90 -56 -134 l-33 -81 -145 -29 -145 -30 68
-60 c38 -33 88 -78 111 -100 l43 -40 -15 -120 c-23 -185 -34 -176 109 -90
l124 75 128 -59 c84 -38 130 -55 132 -47 1 6 -11 70 -28 141 l-31 129 34 35
c18 20 61 67 96 104 35 37 61 71 58 74 -4 3 -68 12 -143 19 -74 7 -137 14
-139 16 -1 2 -33 57 -70 123 -37 66 -69 122 -71 124 -2 2 -14 -21 -27 -50z"/>
<path d="M19784 4102 c-68 -43 -83 -146 -28 -203 56 -58 148 -57 198 2 50 59
47 125 -9 179 -44 42 -113 52 -161 22z"/>
<path d="M15286 4020 c-65 -20 -100 -79 -94 -157 5 -63 40 -107 97 -123 119
-33 210 19 219 124 8 101 -49 167 -144 165 -27 0 -62 -5 -78 -9z"/>
<path d="M20803 4006 c-39 -18 -73 -70 -73 -113 0 -42 41 -89 89 -104 32 -9
44 -8 75 6 72 35 89 121 34 180 -38 41 -80 51 -125 31z"/>
<path d="M16272 3931 c-125 -79 -75 -281 71 -281 80 0 138 48 153 128 9 46
-20 116 -58 144 -44 31 -123 35 -166 9z"/>
<path d="M9828 3894 c-25 -55 39 -108 83 -68 21 19 25 64 7 82 -7 7 -27 12
-45 12 -26 0 -36 -6 -45 -26z"/>
<path d="M21810 3893 c-63 -23 -83 -111 -35 -158 13 -14 35 -25 49 -25 33 0
74 37 85 76 19 66 -39 129 -99 107z"/>
<path d="M10809 3841 c-35 -35 -38 -77 -9 -114 40 -51 113 -43 145 18 16 28
17 37 5 64 -27 66 -92 81 -141 32z"/>
<path d="M11794 3781 c-90 -55 -47 -191 59 -191 49 0 73 13 92 50 54 104 -52
202 -151 141z"/>
<path d="M22796 3754 c-20 -20 -20 -38 0 -58 16 -17 39 -11 62 17 9 11 8 17
-6 29 -30 26 -40 29 -56 12z"/>
<path d="M18254 3741 c-42 -26 -68 -83 -61 -135 8 -59 70 -116 127 -116 81 0
140 57 140 135 0 105 -116 171 -206 116z"/>
<path d="M19230 3622 c-32 -32 -40 -47 -40 -77 0 -51 27 -92 77 -116 36 -18
48 -19 75 -10 136 48 120 225 -22 239 -48 4 -52 3 -90 -36z"/>
<path d="M14785 3559 c-79 -22 -119 -123 -77 -191 12 -19 39 -44 60 -56 98
-55 182 0 182 117 0 58 -32 104 -87 127 -36 16 -36 16 -78 3z"/>
<path d="M20248 3554 c-15 -8 -35 -28 -43 -44 -32 -61 -11 -120 51 -146 54
-23 82 -18 121 21 32 32 35 39 30 78 -4 31 -15 50 -41 74 -39 36 -74 41 -118
17z"/>
<path d="M15741 3454 c-67 -60 -76 -132 -24 -194 106 -127 301 31 200 163 -57
75 -117 85 -176 31z"/>
<path d="M21245 3415 c-14 -13 -25 -36 -25 -50 0 -33 42 -75 75 -75 59 0 89
87 43 130 -29 27 -64 25 -93 -5z"/>
<path d="M16740 3372 c-46 -24 -73 -75 -66 -126 6 -53 34 -88 84 -106 37 -13
47 -13 84 0 109 38 117 192 13 236 -46 19 -73 18 -115 -4z"/>
<path d="M10307 3353 c-12 -11 -8 -40 7 -52 10 -9 19 -7 37 9 24 20 24 20 5
35 -21 16 -39 19 -49 8z"/>
<path d="M22256 3294 c-6 -15 17 -64 29 -64 2 0 12 11 21 25 13 20 14 28 4 40
-17 20 -46 19 -54 -1z"/>
<path d="M11267 3282 c-38 -42 -8 -102 51 -102 54 0 83 68 44 103 -25 22 -75
21 -95 -1z"/>
<path d="M12246 3209 c-43 -51 -31 -110 29 -135 74 -30 146 46 110 115 -31 60
-97 70 -139 20z"/>
<path d="M18745 3186 c-43 -19 -66 -49 -72 -95 -5 -36 -2 -44 30 -76 28 -28
43 -35 75 -35 48 0 86 28 102 74 26 81 -59 165 -135 132z"/>
<path d="M13248 3154 c-49 -26 -63 -87 -33 -144 16 -30 61 -60 90 -60 48 0
105 59 105 110 0 37 -30 81 -65 96 -43 17 -63 17 -97 -2z"/>
<path d="M21825 2976 l-57 -135 -46 -10 c-26 -5 -89 -18 -139 -27 -51 -10 -93
-21 -93 -25 0 -4 47 -48 105 -99 58 -50 105 -94 105 -96 0 -3 -7 -66 -16 -140
-8 -75 -14 -138 -12 -140 2 -2 56 28 120 66 64 39 123 70 131 70 8 0 67 -25
132 -55 64 -30 120 -55 124 -55 4 0 -7 64 -25 141 l-32 141 98 107 98 106 -41
6 c-23 4 -88 10 -145 14 l-102 7 -57 102 c-31 55 -64 114 -74 129 l-17 28 -57
-135z"/>
<path d="M14253 3078 c-42 -11 -73 -52 -73 -97 0 -43 20 -75 60 -96 46 -24 78
-19 116 19 82 82 10 203 -103 174z"/>
<path d="M19705 3055 c-35 -34 -33 -78 5 -117 27 -26 36 -30 68 -25 46 8 72
38 72 84 0 74 -92 112 -145 58z"/>
<path d="M15207 2979 c-40 -30 -54 -87 -33 -131 21 -43 56 -63 109 -62 98 3
133 132 53 196 -30 25 -97 23 -129 -3z"/>
<path d="M20720 2950 c-11 -11 -20 -28 -20 -38 0 -41 69 -69 98 -40 18 18 14
63 -6 81 -25 22 -48 21 -72 -3z"/>
<path d="M16191 2884 c-66 -55 -58 -154 14 -188 63 -30 121 -11 150 50 52 111
-72 216 -164 138z"/>
<path d="M17202 2804 c-59 -41 -63 -114 -10 -159 64 -54 158 -12 158 72 -1 79
-87 130 -148 87z"/>
<path d="M11740 2725 c-15 -18 -10 -45 11 -58 12 -8 23 -5 42 10 l26 20 -23
22 c-26 25 -39 26 -56 6z"/>
<path d="M18179 2691 c-32 -33 -36 -58 -14 -100 20 -40 66 -57 105 -41 33 14
60 55 60 90 0 33 -53 80 -90 80 -22 0 -41 -9 -61 -29z"/>
<path d="M12725 2655 c-30 -29 -32 -58 -5 -85 24 -24 48 -25 78 -4 22 15 30
57 14 80 -7 11 -46 34 -57 34 -3 0 -17 -11 -30 -25z"/>
<path d="M19192 2594 c-15 -10 -22 -25 -22 -49 0 -60 67 -86 108 -42 29 31 28
61 -4 86 -32 25 -52 26 -82 5z"/>
<path d="M13712 2593 c-7 -3 -19 -18 -28 -35 -19 -37 -5 -80 32 -97 37 -16 52
-14 79 14 30 30 32 64 4 99 -20 25 -54 33 -87 19z"/>
<path d="M14672 2507 c-59 -63 12 -168 92 -137 53 20 58 89 11 136 -31 31 -75
31 -103 1z"/>
<path d="M20191 2476 c-9 -11 -10 -20 -1 -35 12 -24 28 -26 53 -7 15 12 16 18
7 35 -12 24 -42 27 -59 7z"/>
<path d="M15681 2413 c-11 -10 -24 -32 -27 -50 -5 -27 -1 -37 25 -64 25 -25
37 -30 59 -25 63 15 85 97 36 135 -33 26 -65 27 -93 4z"/>
<path d="M16680 2327 c-52 -26 -49 -104 5 -129 82 -37 145 85 65 127 -35 18
-38 18 -70 2z"/>
<path d="M17673 2230 c-52 -21 -31 -110 26 -110 15 0 35 8 44 18 44 48 -8 116
-70 92z"/>
<path d="M18666 2124 c-19 -18 -20 -36 -4 -52 17 -17 42 -15 62 6 15 18 15 20
-1 34 -31 26 -41 29 -57 12z"/>
<path d="M13200 2090 c0 -5 4 -10 9 -10 6 0 13 5 16 10 3 6 -1 10 -9 10 -9 0
-16 -4 -16 -10z"/>
<path d="M14179 2014 c-16 -20 0 -49 27 -49 22 0 31 30 14 50 -16 19 -24 19
-41 -1z"/>
<path d="M15151 1924 l-24 -17 24 -18 c32 -25 66 -24 74 1 8 24 -10 50 -34 50
-9 0 -27 -7 -40 -16z"/>
<path d="M16151 1841 c-12 -8 -12 -14 -2 -40 11 -26 15 -28 32 -18 23 14 30
32 23 52 -7 17 -32 19 -53 6z"/>
</g>
</svg>
